<svg version="1.1" id="Layer_1" xmlns="http://www.w3.org/2000/svg" xmlns:xlink="http://www.w3.org/1999/xlink" x="0px" y="0px"
	 width="100%" viewBox="0 0 180 159" enable-background="new 0 0 180 159" xml:space="preserve">
<path fill="#FDFDFD" opacity="1.000000" stroke="none" 
	d="
M112.000000,160.000000 
	C74.666672,160.000000 37.833344,160.000000 1.000010,160.000000 
	C1.000007,107.000008 1.000007,54.000023 1.000003,1.000024 
	C60.999981,1.000016 120.999962,1.000016 180.999954,1.000008 
	C180.999969,53.999973 180.999969,106.999947 180.999985,159.999969 
	C158.166672,160.000000 135.333328,160.000000 112.000000,160.000000 
M74.107971,63.023090 
	C69.387344,67.556610 65.360710,67.056999 61.187881,61.325771 
	C59.622112,59.175240 58.338066,56.514404 54.364719,60.391846 
	C56.811493,62.264530 59.239746,63.724075 61.119255,65.704422 
	C62.334644,66.985008 63.758583,69.338890 63.347309,70.676125 
	C61.371635,77.099915 62.693382,80.302704 68.936989,83.108086 
	C69.978287,83.575951 70.582733,85.171288 71.228622,86.334702 
	C73.129227,89.758171 74.114044,94.705750 76.995338,96.332329 
	C81.377205,98.806023 81.403122,101.350876 80.456787,105.174507 
	C79.702637,108.221626 80.865448,109.869591 84.195175,110.028175 
	C89.314804,110.272003 93.230782,107.009041 95.261002,102.162971 
	C97.579460,96.628876 96.324066,91.538658 95.067558,86.225136 
	C94.365082,83.254494 93.384987,81.396683 89.783279,80.757507 
	C86.476906,80.170746 82.340424,78.694359 80.586449,76.194756 
	C77.752640,72.156288 76.572762,66.957268 75.684181,62.157421 
	C95.664764,78.441284 115.645348,94.725159 135.918060,111.247093 
	C137.897354,108.607361 139.650589,106.269127 141.664780,103.582863 
	C109.268913,77.040031 77.211113,50.774200 45.169983,24.522020 
	C42.779812,27.254274 40.769642,29.552143 39.023228,31.548506 
	C50.979900,41.919437 62.662476,52.052624 74.107971,63.023090 
M38.461906,42.544815 
	C34.579597,35.856941 30.677492,29.180466 26.820002,22.478312 
	C22.013655,14.127574 22.029543,14.118429 11.526218,15.498762 
	C36.808929,59.054951 61.974957,102.410126 87.594208,146.546082 
	C97.399002,129.867844 106.612022,114.196213 115.907417,98.384468 
	C112.735229,96.213295 110.353897,94.583412 107.842918,92.864799 
	C101.296577,104.071541 94.991837,114.864670 88.687096,125.657806 
	C88.055527,125.757889 87.423965,125.857971 86.792397,125.958061 
	C71.403297,99.342720 56.014194,72.727379 41.318409,46.006580 
	C41.693634,45.442333 42.068855,44.878086 42.444077,44.313835 
	C41.292450,43.876183 40.140827,43.438526 38.461906,42.544815 
M123.375488,83.984497 
	C124.266899,82.808167 125.284470,81.706429 126.030647,80.444244 
	C136.016632,63.552795 145.975327,46.645153 155.915390,29.726624 
	C158.702911,24.982138 161.407959,20.189196 164.362534,15.050285 
	C161.041504,15.050285 158.486145,14.720755 156.072906,15.164362 
	C154.421875,15.467857 152.317627,16.464027 151.525070,17.805691 
	C139.617371,37.963497 127.894051,58.230221 115.950623,78.775398 
	C118.213364,80.532219 120.428947,82.252419 123.375488,83.984497 
M42.672211,40.956787 
	C43.065659,40.970287 43.459106,40.983788 43.852554,40.997292 
	C43.751221,40.544529 43.649887,40.091770 43.548557,39.639008 
	C43.201962,39.921356 42.855366,40.203709 42.672211,40.956787 
M90.706604,115.561584 
	C90.989807,115.291481 91.273003,115.021378 91.556206,114.751274 
	C91.444084,114.633965 91.240654,114.408485 91.233017,114.414940 
	C90.934349,114.667038 90.653526,114.940269 90.706604,115.561584 
M44.265564,47.817612 
	C44.378120,47.973789 44.490673,48.129971 44.603230,48.286148 
	C44.580799,48.068802 44.558369,47.851460 44.265564,47.817612 
M86.525040,115.633728 
	C86.471260,115.842812 86.417480,116.051903 86.363701,116.260986 
	C86.495544,116.126755 86.627396,115.992523 86.525040,115.633728 
M88.412514,114.483376 
	C88.412514,114.483376 88.522141,114.418549 88.412514,114.483376 
z"/>
<path fill="#0C0C0C" opacity="1.000000" stroke="none" 
	d="
M40.625092,46.112038 
	C56.014194,72.727379 71.403297,99.342720 86.792397,125.958061 
	C87.423965,125.857971 88.055527,125.757889 88.687096,125.657806 
	C94.991837,114.864670 101.296577,104.071541 107.842918,92.864799 
	C110.353897,94.583412 112.735229,96.213295 115.907417,98.384468 
	C106.612022,114.196213 97.399002,129.867844 87.594208,146.546082 
	C61.974957,102.410126 36.808929,59.054951 11.526218,15.498762 
	C22.029543,14.118429 22.013655,14.127574 26.820002,22.478312 
	C30.677492,29.180466 34.579597,35.856941 38.723122,43.078247 
	C39.531258,44.445133 40.078175,45.278584 40.625092,46.112038 
z"/>
<path fill="#0C0C0C" opacity="1.000000" stroke="none" 
	d="
M74.345055,62.185814 
	C62.662476,52.052624 50.979900,41.919437 39.023228,31.548506 
	C40.769642,29.552143 42.779812,27.254274 45.169983,24.522020 
	C77.211113,50.774200 109.268913,77.040031 141.664780,103.582863 
	C139.650589,106.269127 137.897354,108.607361 135.918060,111.247093 
	C115.645348,94.725159 95.664764,78.441284 75.166702,62.207420 
	C74.649223,62.257420 74.345055,62.185814 74.345055,62.185814 
z"/>
<path fill="#FFFFFF" opacity="1.000000" stroke="none" 
	d="
M74.226517,62.604454 
	C74.345055,62.185814 74.649223,62.257420 74.671806,62.252899 
	C76.572762,66.957268 77.752640,72.156288 80.586449,76.194756 
	C82.340424,78.694359 86.476906,80.170746 89.783279,80.757507 
	C93.384987,81.396683 94.365082,83.254494 95.067558,86.225136 
	C96.324066,91.538658 97.579460,96.628876 95.261002,102.162971 
	C93.230782,107.009041 89.314804,110.272003 84.195175,110.028175 
	C80.865448,109.869591 79.702637,108.221626 80.456787,105.174507 
	C81.403122,101.350876 81.377205,98.806023 76.995338,96.332329 
	C74.114044,94.705750 73.129227,89.758171 71.228622,86.334702 
	C70.582733,85.171288 69.978287,83.575951 68.936989,83.108086 
	C62.693382,80.302704 61.371635,77.099915 63.347309,70.676125 
	C63.758583,69.338890 62.334644,66.985008 61.119255,65.704422 
	C59.239746,63.724075 56.811493,62.264530 54.364719,60.391846 
	C58.338066,56.514404 59.622112,59.175240 61.187881,61.325771 
	C65.360710,67.056999 69.387344,67.556610 74.226517,62.604454 
z"/>
<path fill="#0D0D0D" opacity="1.000000" stroke="none" 
	d="
M123.010010,83.978561 
	C120.428947,82.252419 118.213364,80.532219 115.950623,78.775398 
	C127.894051,58.230221 139.617371,37.963497 151.525070,17.805691 
	C152.317627,16.464027 154.421875,15.467857 156.072906,15.164362 
	C158.486145,14.720755 161.041504,15.050285 164.362534,15.050285 
	C161.407959,20.189196 158.702911,24.982138 155.915390,29.726624 
	C145.975327,46.645153 136.016632,63.552795 126.030647,80.444244 
	C125.284470,81.706429 124.266899,82.808167 123.010010,83.978561 
z"/>
<path fill="#F0F0F0" opacity="1.000000" stroke="none" 
	d="
M40.971748,46.059311 
	C40.078175,45.278584 39.531258,44.445133 38.986771,43.306274 
	C40.140827,43.438526 41.292450,43.876183 42.444077,44.313835 
	C42.068855,44.878086 41.693634,45.442333 40.971748,46.059311 
z"/>
<path fill="#F0F0F0" opacity="1.000000" stroke="none" 
	d="
M42.590492,40.721420 
	C42.855366,40.203709 43.201962,39.921356 43.548557,39.639008 
	C43.649887,40.091770 43.751221,40.544529 43.852554,40.997292 
	C43.459106,40.983788 43.065659,40.970287 42.590492,40.721420 
z"/>
<path fill="#F3F3F3" opacity="1.000000" stroke="none" 
	d="
M90.538483,115.386154 
	C90.653526,114.940269 90.934349,114.667038 91.233017,114.414940 
	C91.240654,114.408485 91.444084,114.633965 91.556206,114.751274 
	C91.273003,115.021378 90.989807,115.291481 90.538483,115.386154 
z"/>
<path fill="#F0F0F0" opacity="1.000000" stroke="none" 
	d="
M44.400749,47.725861 
	C44.558369,47.851460 44.580799,48.068802 44.603226,48.286148 
	C44.490673,48.129971 44.378120,47.973789 44.400749,47.725861 
z"/>
<path fill="#F3F3F3" opacity="1.000000" stroke="none" 
	d="
M86.642143,115.746010 
	C86.627396,115.992523 86.495544,116.126755 86.363701,116.260986 
	C86.417480,116.051903 86.471260,115.842812 86.642143,115.746010 
z"/>
<path fill="#F3F3F3" opacity="1.000000" stroke="none" 
	d="
M88.467331,114.450958 
	C88.522141,114.418549 88.412514,114.483376 88.467331,114.450958 
z"/>
</svg>