<svg version="1.1" id="Layer_1" xmlns="http://www.w3.org/2000/svg" xmlns:xlink="http://www.w3.org/1999/xlink" x="0px" y="0px"
	 width="100%" viewBox="0 0 1024 896" enable-background="new 0 0 1024 896" xml:space="preserve">
<path fill="#000000" opacity="1.000000" stroke="none" 
	d="
M440.726501,734.230469 
	C380.391541,631.805969 66.644112,91.397339 65.447685,87.803688 
	C66.835709,86.118416 68.803284,86.766403 70.516823,86.755081 
	C81.682297,86.681343 92.853561,86.917259 104.013123,86.646919 
	C121.064438,86.233849 133.412888,93.899811 141.855652,108.246483 
	C155.712402,131.793045 169.390808,155.444611 183.132980,179.058563 
	C217.908722,238.815765 252.699402,298.564301 287.443848,358.339661 
	C319.339996,413.214691 351.178406,468.123199 383.051575,523.011536 
	C418.521759,584.094177 454.145660,645.088257 489.354462,706.321106 
	C496.181061,718.193481 503.314056,719.607544 510.881378,706.395569 
	C544.000488,648.571899 577.813354,591.145630 611.371399,533.573364 
	C614.628967,527.984558 614.821228,527.884338 619.959167,531.585266 
	C632.261047,540.446411 644.454224,549.460144 656.841553,558.199280 
	C660.106018,560.502319 659.924316,562.388611 658.076843,565.541687 
	C624.559570,622.746887 591.138977,680.008789 557.721130,737.272156 
	C539.584961,768.349365 521.494385,799.453125 503.374786,830.539978 
	C502.557556,831.942017 502.022491,833.589661 499.506256,834.867065 
	C479.958954,801.399902 460.435272,767.973083 440.726501,734.230469 
z"/>
<path fill="#000000" opacity="1.000000" stroke="none" 
	d="
M360.354187,296.664307 
	C315.352875,259.807983 270.649506,223.149643 225.860321,186.596451 
	C222.403778,183.775513 221.918533,181.772034 225.042068,178.202438 
	C235.024017,166.794922 244.774826,155.178177 254.350922,143.427109 
	C256.961975,140.222992 258.739960,140.469986 261.634766,142.853958 
	C312.437195,184.691559 363.264648,226.498947 414.158630,268.225159 
	C473.815125,317.135498 533.524963,365.980896 593.241760,414.817627 
	C638.639709,451.944305 684.068176,489.033783 729.515442,526.100098 
	C753.917664,546.002258 778.397400,565.809387 802.820801,585.685608 
	C808.319397,590.160461 808.312683,590.237000 804.125366,595.746216 
	C795.355103,607.285156 786.413269,618.697083 777.831604,630.374146 
	C775.278198,633.848511 773.501831,633.854492 770.324402,631.260071 
	C728.896667,597.433838 687.371704,563.726746 645.897095,529.957764 
	C594.862183,488.404694 543.810303,446.872101 492.842865,405.236359 
	C448.716187,369.188904 404.697113,333.009735 360.354187,296.664307 
z"/>
<path fill="#000000" opacity="1.000000" stroke="none" 
	d="
M864.777405,210.693680 
	C844.453247,245.547775 824.372620,280.120514 804.181580,314.628693 
	C772.297119,369.121796 740.306274,423.552612 708.478516,478.078705 
	C706.142090,482.081360 704.209106,482.690002 700.483887,479.786133 
	C688.528076,470.466217 676.473694,461.265442 664.251648,452.299072 
	C660.960327,449.884430 660.668701,448.048065 662.695923,444.605743 
	C680.787354,413.886444 698.727722,383.078094 716.684631,352.279694 
	C743.869690,305.653839 771.044067,259.021729 798.200745,212.379349 
	C817.981506,178.405304 837.772217,144.436874 857.458374,110.408005 
	C863.056702,100.730843 870.262695,92.991257 880.955322,88.995811 
	C884.241760,87.767807 887.581360,86.714508 891.137939,86.710533 
	C904.803284,86.695267 918.468567,86.693535 932.133911,86.717537 
	C933.253113,86.719505 934.484009,86.490387 936.010681,88.139938 
	C912.416870,128.739868 888.694153,169.561615 864.777405,210.693680 
z"/>
</svg>